<svg version="1.1" id="Layer_1" xmlns="http://www.w3.org/2000/svg" xmlns:xlink="http://www.w3.org/1999/xlink" x="0px" y="0px"
	 width="100%" viewBox="0 0 388 388" enable-background="new 0 0 388 388" xml:space="preserve">
<path fill="#EBEDF0" opacity="1.000000" stroke="none" 
	d="
M1.000000,39.000000 
	C1.000000,26.343584 1.000000,13.687169 1.000000,1.015377 
	C130.218414,1.015377 259.436829,1.015377 389.000000,1.015377 
	C389.000000,39.020199 389.000000,77.041443 388.616425,115.482979 
	C379.191162,113.449020 370.130981,111.059998 361.119232,108.500320 
	C358.453461,107.743141 356.902618,108.056839 356.631836,111.004875 
	C351.887268,106.627831 347.431519,102.425507 342.692596,98.028488 
	C335.267212,92.942841 328.124969,88.051895 320.682526,82.990570 
	C317.580536,81.223396 314.778809,79.626602 311.914612,77.673943 
	C305.462494,63.560238 297.185455,51.124630 285.989471,40.340103 
	C276.796112,33.235966 267.759613,26.415709 258.446533,19.360142 
	C247.110565,14.818656 236.051132,10.512478 224.588226,6.087568 
	C222.891739,5.862740 221.593491,5.799653 220.306564,5.643402 
	C213.202606,4.780879 206.101410,3.895627 198.537567,2.924317 
	C189.379181,3.532942 180.682480,4.235419 171.572571,4.920212 
	C161.081192,8.206863 151.003052,11.511199 140.565857,14.872051 
	C137.691116,16.184185 135.106323,17.319250 132.671173,18.715343 
	C118.764618,26.688093 106.169762,36.236855 96.203651,49.359123 
	C95.078789,50.381702 94.213684,51.250851 92.897789,52.087486 
	C85.935883,51.049931 79.434959,49.972538 72.911819,49.052784 
	C48.945206,45.673534 24.971214,42.346615 1.000000,39.000000 
z"/>
<path fill="#F1F3F4" opacity="1.000000" stroke="none" 
	d="
M187.000000,389.000000 
	C125.067184,389.000000 63.134377,389.000000 1.000000,389.000000 
	C1.000000,316.645905 1.000000,244.291611 1.388491,171.468933 
	C2.553936,171.006271 3.330890,171.012009 4.092739,171.448090 
	C3.872349,173.354446 3.512824,174.827728 3.486503,176.306946 
	C3.298509,186.872177 3.178430,197.438599 3.016716,208.444672 
	C3.349311,212.003464 3.191686,215.288620 4.144724,218.211655 
	C7.864233,229.619675 11.935359,240.913025 15.933361,252.595367 
	C21.555262,264.548889 28.584202,275.117859 38.143505,284.295837 
	C46.677811,291.147705 55.070721,297.697113 63.647827,304.550171 
	C68.645035,307.609863 73.458054,310.365936 78.346306,313.448578 
	C97.531685,353.009369 128.360703,377.242249 171.140167,386.129639 
	C176.398590,387.222046 181.712051,388.049652 187.000000,389.000000 
z"/>
<path fill="#F0F2F4" opacity="1.000000" stroke="none" 
	d="
M389.000000,245.000000 
	C389.000000,292.936493 389.000000,340.872986 389.000000,389.000000 
	C326.979248,389.000000 264.958282,389.000000 202.678406,388.637451 
	C207.946899,387.486938 213.474289,386.698975 219.404327,385.938599 
	C228.221939,383.320190 236.636902,380.674225 245.386719,377.904236 
	C253.261978,373.584564 260.802368,369.388916 268.662598,365.102966 
	C274.056641,360.698792 279.130798,356.384918 284.500305,351.931671 
	C288.654022,347.438507 292.512360,343.084747 296.645081,338.498474 
	C300.749725,331.894196 304.579987,325.522369 308.641235,318.912048 
	C310.245148,316.448303 311.618011,314.223114 313.350342,311.958740 
	C344.447998,297.435791 365.953186,274.193542 379.481903,243.005524 
	C382.920990,243.670273 385.960510,244.335144 389.000000,245.000000 
z"/>
<path fill="#ECEFF1" opacity="1.000000" stroke="none" 
	d="
M4.107844,171.017746 
	C3.330890,171.012009 2.553936,171.006271 1.388491,171.000275 
	C1.000000,127.312439 1.000000,83.624878 1.000000,39.468658 
	C24.971214,42.346615 48.945206,45.673534 72.911819,49.052784 
	C79.434959,49.972538 85.935883,51.049931 92.767944,52.412735 
	C87.776588,61.543228 82.464287,70.315956 76.782883,79.103119 
	C51.631710,90.729561 32.524776,108.475716 18.881067,132.182571 
	C11.878394,144.350204 7.641185,157.543808 4.107844,171.017746 
z"/>
<path fill="#6265AD" opacity="1.000000" stroke="none" 
	d="
M219.001694,385.911041 
	C213.474289,386.698975 207.946899,387.486938 202.209747,388.637451 
	C197.310745,389.000000 192.621490,389.000000 187.466125,389.000000 
	C181.712051,388.049652 176.398590,387.222046 171.140167,386.129639 
	C128.360703,377.242249 97.531685,353.009369 78.704865,313.437195 
	C81.314285,313.778442 83.640381,314.457642 86.219490,315.385437 
	C91.960670,317.146362 97.448837,318.658630 103.240318,320.411194 
	C110.032043,321.554504 116.520447,322.457520 123.016876,323.708374 
	C124.102394,325.408173 124.909988,327.205078 126.297127,328.046539 
	C155.601242,345.822235 184.985962,363.465027 214.290863,381.239410 
	C216.129318,382.354462 217.443573,384.333801 219.001694,385.911041 
z"/>
<path fill="#ECEFF1" opacity="1.000000" stroke="none" 
	d="
M389.000000,244.531342 
	C385.960510,244.335144 382.920990,243.670273 379.581573,242.654541 
	C382.159363,229.429092 385.945801,216.671936 387.629028,203.643036 
	C388.990479,193.104843 388.854950,182.152267 385.192596,171.330444 
	C382.423523,161.953964 379.687866,152.980469 376.917175,143.648483 
	C371.954315,135.185867 367.026489,127.081726 362.018372,118.642853 
	C360.265594,115.931953 358.593140,113.555779 356.920654,111.179604 
	C356.902618,108.056839 358.453461,107.743141 361.119232,108.500320 
	C370.130981,111.059998 379.191162,113.449020 388.616425,115.951637 
	C389.000000,158.687561 389.000000,201.375122 389.000000,244.531342 
z"/>
<path fill="#68C7CF" opacity="1.000000" stroke="none" 
	d="
M311.977051,78.029816 
	C314.778809,79.626602 317.580536,81.223396 320.681152,83.341408 
	C320.505798,84.885254 320.251251,86.110283 319.523956,86.899734 
	C310.522400,96.670227 301.509247,106.431412 292.382507,116.084801 
	C283.929901,125.025146 275.262695,133.763412 266.860199,142.749802 
	C264.881073,144.866425 263.585602,147.622314 261.654236,149.945435 
	C256.785950,147.550049 252.239044,145.293365 247.346130,142.980988 
	C212.357910,127.899124 177.705917,128.146347 143.039047,142.565216 
	C143.095184,141.885468 143.156906,141.499084 143.462006,140.877563 
	C151.056396,125.625801 160.957550,112.485970 173.264709,100.764633 
	C182.076370,94.498985 190.582825,88.360916 199.441223,82.135735 
	C208.193695,78.669594 216.594223,75.290565 225.390167,71.899063 
	C226.908630,71.602264 228.016724,71.213692 229.157074,71.050079 
	C238.450882,69.716652 247.750702,68.425262 257.476624,67.120819 
	C266.933411,68.021156 275.962280,68.921761 285.373199,69.931732 
	C294.495880,72.704002 303.236450,75.366905 311.977051,78.029816 
z"/>
<path fill="#434CA0" opacity="1.000000" stroke="none" 
	d="
M143.218643,141.112701 
	C143.156906,141.499084 143.095184,141.885468 142.832825,142.870697 
	C127.683838,177.969299 127.944130,212.520920 142.021118,247.296036 
	C138.506622,246.018799 135.249924,244.566025 131.712799,242.910522 
	C122.651688,236.422226 113.870995,230.136658 104.921288,223.564697 
	C101.486984,219.189804 98.221703,215.101288 95.349785,210.952332 
	C96.495392,209.084488 97.900490,207.278625 97.904778,205.469452 
	C98.023338,155.433548 98.017761,105.397270 97.934448,55.361221 
	C97.931030,53.308567 96.975410,51.257504 96.463417,49.205696 
	C106.169762,36.236855 118.764618,26.688093 132.671173,18.715343 
	C135.106323,17.319250 137.691116,16.184185 140.735352,15.269445 
	C141.509262,17.727648 141.966156,19.844730 141.968582,21.962332 
	C142.011887,59.655483 141.981186,97.348740 142.051956,135.041809 
	C142.055756,137.066162 142.812439,139.089096 143.218643,141.112701 
z"/>
<path fill="#3E4A9F" opacity="1.000000" stroke="none" 
	d="
M96.203651,49.359123 
	C96.975410,51.257504 97.931030,53.308567 97.934448,55.361221 
	C98.017761,105.397270 98.023338,155.433548 97.904778,205.469452 
	C97.900490,207.278625 96.495392,209.084488 95.061951,210.785828 
	C89.942169,204.077194 85.503578,197.474625 80.922050,190.550873 
	C76.718300,178.428452 72.657494,166.627243 68.553223,154.393845 
	C68.320068,140.365067 66.880890,126.634468 68.320465,113.212631 
	C69.560066,101.655197 74.081551,90.449753 77.151978,79.088684 
	C82.464287,70.315956 87.776588,61.543228 93.218735,52.445248 
	C94.213684,51.250851 95.078789,50.381702 96.203651,49.359123 
z"/>
<path fill="#484FA2" opacity="1.000000" stroke="none" 
	d="
M143.462036,140.877563 
	C142.812439,139.089096 142.055756,137.066162 142.051956,135.041809 
	C141.981186,97.348740 142.011887,59.655483 141.968582,21.962332 
	C141.966156,19.844730 141.509262,17.727648 141.094406,15.212929 
	C151.003052,11.511199 161.081192,8.206863 171.576752,5.393221 
	C171.996109,34.940865 171.973587,63.997875 172.041702,93.054672 
	C172.047836,95.667892 172.639664,98.279732 172.959503,100.892212 
	C160.957550,112.485970 151.056396,125.625801 143.462036,140.877563 
z"/>
<path fill="#4D53A4" opacity="1.000000" stroke="none" 
	d="
M173.264709,100.764633 
	C172.639664,98.279732 172.047836,95.667892 172.041702,93.054672 
	C171.973587,63.997875 171.996109,34.940865 171.989990,5.410905 
	C180.682480,4.235419 189.379181,3.532942 198.537827,3.391642 
	C199.029602,30.042828 199.059433,56.132839 199.089264,82.222855 
	C190.582825,88.360916 182.076370,94.498985 173.264709,100.764633 
z"/>
<path fill="#7ACBD3" opacity="1.000000" stroke="none" 
	d="
M356.631836,111.004875 
	C358.593140,113.555779 360.265594,115.931953 361.665466,118.683617 
	C356.284302,124.182899 351.095581,129.229660 346.082336,134.445084 
	C331.616058,149.494690 317.186890,164.580475 302.851685,179.754578 
	C301.487244,181.198853 300.884369,183.362595 299.636139,185.010773 
	C293.559631,178.231552 287.774933,171.633850 282.138611,164.734131 
	C284.063354,162.251648 285.705750,159.943771 287.637604,157.911026 
	C301.921906,142.880630 316.330536,127.967842 330.547913,112.874763 
	C334.933136,108.219437 338.846405,103.119522 342.975769,98.223190 
	C347.431519,102.425507 351.887268,106.627831 356.631836,111.004875 
z"/>
<path fill="#72CAD2" opacity="1.000000" stroke="none" 
	d="
M342.692566,98.028488 
	C338.846405,103.119522 334.933136,108.219437 330.547913,112.874763 
	C316.330536,127.967842 301.921906,142.880630 287.637604,157.911026 
	C285.705750,159.943771 284.063354,162.251648 281.843658,164.574829 
	C274.925446,159.839737 268.450562,154.961929 261.975647,150.084122 
	C263.585602,147.622314 264.881073,144.866425 266.860199,142.749802 
	C275.262695,133.763412 283.929901,125.025146 292.382507,116.084801 
	C301.509247,106.431412 310.522400,96.670227 319.523956,86.899734 
	C320.251251,86.110283 320.505798,84.885254 320.981384,83.511795 
	C328.124969,88.051895 335.267212,92.942841 342.692566,98.028488 
z"/>
<path fill="#5156A5" opacity="1.000000" stroke="none" 
	d="
M199.441223,82.135727 
	C199.059433,56.132839 199.029602,30.042828 198.999527,3.485493 
	C206.101410,3.895627 213.202606,4.780879 220.306564,5.643402 
	C221.593491,5.799653 222.891739,5.862740 224.590195,6.541954 
	C224.995331,28.713896 224.995041,50.312721 224.994751,71.911545 
	C216.594223,75.290565 208.193695,78.669594 199.441223,82.135727 
z"/>
<path fill="#555AA7" opacity="1.000000" stroke="none" 
	d="
M225.390167,71.899063 
	C224.995041,50.312721 224.995331,28.713896 224.993683,6.660686 
	C236.051132,10.512478 247.110565,14.818656 258.050049,19.629198 
	C257.620178,21.710804 257.047485,23.287029 257.041382,24.865440 
	C256.987000,38.950432 257.032562,53.035812 257.048706,67.121078 
	C247.750702,68.425262 238.450882,69.716652 229.157074,71.050079 
	C228.016724,71.213692 226.908630,71.602264 225.390167,71.899063 
z"/>
<path fill="#5B5FAA" opacity="1.000000" stroke="none" 
	d="
M257.476624,67.120819 
	C257.032562,53.035812 256.987000,38.950432 257.041382,24.865440 
	C257.047485,23.287029 257.620178,21.710804 258.326599,19.864506 
	C267.759613,26.415709 276.796112,33.235966 285.915314,40.754856 
	C285.722809,42.565788 285.224854,43.674732 285.208008,44.790928 
	C285.082214,53.133934 285.051575,61.478374 284.991119,69.822365 
	C275.962280,68.921761 266.933411,68.021156 257.476624,67.120819 
z"/>
<path fill="#6063AC" opacity="1.000000" stroke="none" 
	d="
M285.373199,69.931732 
	C285.051575,61.478374 285.082214,53.133934 285.208008,44.790928 
	C285.224854,43.674732 285.722809,42.565788 286.072144,41.038734 
	C297.185455,51.124630 305.462494,63.560238 311.914612,77.673943 
	C303.236450,75.366905 294.495880,72.704002 285.373199,69.931732 
z"/>
<path fill="#96D4DA" opacity="1.000000" stroke="none" 
	d="
M76.782883,79.103119 
	C74.081551,90.449753 69.560066,101.655197 68.320465,113.212631 
	C66.880890,126.634468 68.320068,140.365067 68.177887,154.517578 
	C62.422096,159.358444 56.840446,163.460052 51.605038,167.964127 
	C38.098598,179.583847 24.800875,191.446350 11.278798,203.047562 
	C8.879711,205.105850 5.801414,206.372467 3.036756,208.004654 
	C3.178430,197.438599 3.298509,186.872177 3.486503,176.306946 
	C3.512824,174.827728 3.872349,173.354446 4.092739,171.448090 
	C7.641185,157.543808 11.878394,144.350204 18.881067,132.182571 
	C32.524776,108.475716 51.631710,90.729561 76.782883,79.103119 
z"/>
<path fill="#83CFD6" opacity="1.000000" stroke="none" 
	d="
M81.064987,190.872070 
	C85.503578,197.474625 89.942169,204.077194 94.668594,210.846268 
	C98.221703,215.101288 101.486984,219.189804 104.760475,223.875702 
	C95.283669,232.709518 85.833427,240.986420 76.303200,249.170166 
	C67.901237,256.385040 59.274391,263.343872 51.011307,270.712341 
	C46.396698,274.827362 42.320778,279.546478 38.002110,283.993378 
	C28.584202,275.117859 21.555262,264.548889 15.972260,252.190338 
	C16.845278,249.583206 17.308830,247.275482 18.705288,245.952408 
	C23.859474,241.069016 29.291147,236.475189 34.676037,231.839340 
	C43.312500,224.404266 52.078346,217.117355 60.631485,209.588303 
	C67.563240,203.486542 74.262566,197.120758 81.064987,190.872070 
z"/>
<path fill="#8DD3D9" opacity="1.000000" stroke="none" 
	d="
M80.922050,190.550873 
	C74.262566,197.120758 67.563240,203.486542 60.631485,209.588303 
	C52.078346,217.117355 43.312500,224.404266 34.676037,231.839340 
	C29.291147,236.475189 23.859474,241.069016 18.705288,245.952408 
	C17.308830,247.275482 16.845278,249.583206 15.914645,251.844009 
	C11.935359,240.913025 7.864233,229.619675 4.144724,218.211655 
	C3.191686,215.288620 3.349311,212.003464 3.016716,208.444672 
	C5.801414,206.372467 8.879711,205.105850 11.278798,203.047562 
	C24.800875,191.446350 38.098598,179.583847 51.605038,167.964127 
	C56.840446,163.460052 62.422096,159.358444 68.221352,154.949768 
	C72.657494,166.627243 76.718300,178.428452 80.922050,190.550873 
z"/>
<path fill="#7ACBD3" opacity="1.000000" stroke="none" 
	d="
M38.143505,284.295837 
	C42.320778,279.546478 46.396698,274.827362 51.011307,270.712341 
	C59.274391,263.343872 67.901237,256.385040 76.303200,249.170166 
	C85.833427,240.986420 95.283669,232.709518 104.929497,224.162094 
	C113.870995,230.136658 122.651688,236.422226 131.670929,243.244263 
	C131.009186,244.950867 130.273331,246.309113 129.183105,247.261887 
	C118.692932,256.429749 108.140823,265.526703 97.610870,274.649078 
	C86.225998,284.512054 74.845848,294.380493 63.463638,304.246552 
	C55.070721,297.697113 46.677811,291.147705 38.143505,284.295837 
z"/>
<path fill="#74CBD2" opacity="1.000000" stroke="none" 
	d="
M63.647827,304.550171 
	C74.845848,294.380493 86.225998,284.512054 97.610870,274.649078 
	C108.140823,265.526703 118.692932,256.429749 129.183105,247.261887 
	C130.273331,246.309113 131.009186,244.950867 131.951340,243.446991 
	C135.249924,244.566025 138.506622,246.018799 142.302094,247.443787 
	C146.560425,249.259201 150.279999,251.102386 153.963882,253.293549 
	C152.339050,255.510468 150.953308,257.612091 149.126419,259.209106 
	C140.050354,267.143188 130.872040,274.960693 121.702591,282.787476 
	C113.162674,290.076904 104.490257,297.214935 96.075562,304.645416 
	C92.447090,307.849487 89.320869,311.622345 85.966476,315.136810 
	C83.640381,314.457642 81.314285,313.778442 78.629623,313.110657 
	C73.458054,310.365936 68.645035,307.609863 63.647827,304.550171 
z"/>
<path fill="#97D4DA" opacity="1.000000" stroke="none" 
	d="
M385.225983,171.733414 
	C388.854950,182.152267 388.990479,193.104843 387.629028,203.643036 
	C385.945801,216.671936 382.159363,229.429092 379.181976,242.654663 
	C365.953186,274.193542 344.447998,297.435791 313.379822,311.585876 
	C315.309204,304.165558 317.568604,297.079010 319.938721,289.606079 
	C323.661346,273.936493 325.054047,258.554047 322.132080,242.552429 
	C322.043915,240.428207 321.941284,238.729523 322.192688,236.991760 
	C327.319519,232.181229 332.171783,227.486237 336.850494,222.624237 
	C351.932770,206.951202 366.955383,191.220718 381.985474,175.497574 
	C383.127930,174.302414 384.148682,172.990860 385.225983,171.733414 
z"/>
<path fill="#4C53A3" opacity="1.000000" stroke="none" 
	d="
M319.828003,289.992432 
	C317.568604,297.079010 315.309204,304.165558 313.020325,311.625000 
	C311.618011,314.223114 310.245148,316.448303 308.260406,318.847290 
	C287.200134,306.733185 266.718750,294.499634 246.328491,282.116058 
	C241.712585,279.312683 237.413437,275.987732 233.095337,272.593079 
	C237.601105,264.547791 241.980026,256.812256 246.512009,248.901520 
	C247.017578,248.442749 247.370071,248.159195 248.061066,248.020432 
	C266.152405,258.817932 283.868378,269.532776 301.678772,280.088287 
	C307.603943,283.599854 313.771332,286.702728 319.828003,289.992432 
z"/>
<path fill="#5A5EAA" opacity="1.000000" stroke="none" 
	d="
M268.342743,365.193237 
	C260.802368,369.388916 253.261978,373.584564 245.082077,377.750000 
	C242.720596,376.421967 241.096024,374.963745 239.261978,373.850586 
	C214.851654,359.035248 190.368896,344.338501 166.026001,329.413574 
	C162.368134,327.170898 159.329849,323.917664 156.397156,321.065826 
	C165.861877,318.037994 174.934418,315.076202 184.051392,312.454590 
	C185.359192,314.038635 186.448471,315.560669 187.915649,316.478729 
	C194.662659,320.700470 201.518829,324.747498 208.329132,328.868317 
	C228.335388,340.973785 248.338440,353.084534 268.342743,365.193237 
z"/>
<path fill="#5F61AB" opacity="1.000000" stroke="none" 
	d="
M156.004959,321.131866 
	C159.329849,323.917664 162.368134,327.170898 166.026001,329.413574 
	C190.368896,344.338501 214.851654,359.035248 239.261978,373.850586 
	C241.096024,374.963745 242.720596,376.421967 244.747223,377.874023 
	C236.636902,380.674225 228.221939,383.320190 219.404327,385.938599 
	C217.443573,384.333801 216.129318,382.354462 214.290863,381.239410 
	C184.985962,363.465027 155.601242,345.822235 126.297127,328.046539 
	C124.909988,327.205078 124.102394,325.408173 123.461609,323.631470 
	C126.599205,323.160797 129.300095,323.114899 132.467743,323.095581 
	C140.624634,322.458740 148.314804,321.795288 156.004959,321.131866 
z"/>
<path fill="#5155A5" opacity="1.000000" stroke="none" 
	d="
M232.968491,272.902863 
	C237.413437,275.987732 241.712585,279.312683 246.328491,282.116058 
	C266.718750,294.499634 287.200134,306.733185 308.029358,319.085815 
	C304.579987,325.522369 300.749725,331.894196 296.462524,338.145325 
	C294.391449,336.878540 292.839752,335.630157 291.153839,334.601746 
	C266.697845,319.682892 242.223831,304.793457 217.939026,289.610809 
	C223.072113,283.850677 228.020294,278.376770 232.968491,272.902863 
z"/>
<path fill="#575BA8" opacity="1.000000" stroke="none" 
	d="
M268.662598,365.102966 
	C248.338440,353.084534 228.335388,340.973785 208.329132,328.868317 
	C201.518829,324.747498 194.662659,320.700470 187.915649,316.478729 
	C186.448471,315.560669 185.359192,314.038635 184.351578,312.266418 
	C190.238770,308.737427 195.870209,305.736816 201.841797,302.893982 
	C203.141281,303.710236 204.072235,304.415283 205.064117,305.020416 
	C223.352234,316.177032 241.596832,327.406403 259.965088,338.429626 
	C267.911896,343.198639 276.117126,347.537018 284.204926,352.071045 
	C279.130798,356.384918 274.056641,360.698792 268.662598,365.102966 
z"/>
<path fill="#5458A7" opacity="1.000000" stroke="none" 
	d="
M284.500305,351.931671 
	C276.117126,347.537018 267.911896,343.198639 259.965088,338.429626 
	C241.596832,327.406403 223.352234,316.177032 205.064117,305.020416 
	C204.072235,304.415283 203.141281,303.710236 202.045990,302.616302 
	C207.191376,298.086243 212.472748,293.991638 217.754120,289.897034 
	C242.223831,304.793457 266.697845,319.682892 291.153839,334.601746 
	C292.839752,335.630157 294.391449,336.878540 296.188110,338.377808 
	C292.512360,343.084747 288.654022,347.438507 284.500305,351.931671 
z"/>
<path fill="#6BC9D1" opacity="1.000000" stroke="none" 
	d="
M132.000977,323.068970 
	C129.300095,323.114899 126.599205,323.160797 123.453583,323.283630 
	C116.520447,322.457520 110.032043,321.554504 103.265045,320.026245 
	C103.946030,317.959045 104.647202,316.221436 105.905762,315.121643 
	C116.757027,305.639008 127.715523,296.279236 138.628738,286.867371 
	C149.791458,277.240295 160.939194,267.595825 172.542603,257.935852 
	C182.661880,258.328827 192.332062,258.744934 201.955124,259.491882 
	C200.278641,261.670013 198.830017,263.724670 196.989243,265.329529 
	C188.018799,273.150360 178.952271,280.861237 169.902832,288.591217 
	C161.357056,295.891022 152.668976,303.030151 144.282532,310.508087 
	C139.922150,314.396118 136.078201,318.863342 132.000977,323.068970 
z"/>
<path fill="#70CAD2" opacity="1.000000" stroke="none" 
	d="
M172.093506,257.958984 
	C160.939194,267.595825 149.791458,277.240295 138.628738,286.867371 
	C127.715523,296.279236 116.757027,305.639008 105.905762,315.121643 
	C104.647202,316.221436 103.946030,317.959045 102.961716,319.785950 
	C97.448837,318.658630 91.960670,317.146362 86.219498,315.385437 
	C89.320869,311.622345 92.447090,307.849487 96.075562,304.645416 
	C104.490257,297.214935 113.162674,290.076904 121.702591,282.787476 
	C130.872040,274.960693 140.050354,267.143188 149.126419,259.209106 
	C150.953308,257.612091 152.339050,255.510468 154.351089,253.311310 
	C160.547165,254.640396 166.320328,256.299683 172.093506,257.958984 
z"/>
<path fill="#83CFD6" opacity="1.000000" stroke="none" 
	d="
M299.927948,185.192307 
	C300.884369,183.362595 301.487244,181.198853 302.851685,179.754578 
	C317.186890,164.580475 331.616058,149.494690 346.082336,134.445084 
	C351.095581,129.229660 356.284302,124.182899 361.745789,119.018341 
	C367.026489,127.081726 371.954315,135.185867 376.577942,143.686676 
	C372.343903,148.058014 368.358154,151.979248 364.494171,156.017029 
	C350.730133,170.400192 336.971771,184.789200 323.295166,199.255325 
	C320.005676,202.734695 317.039337,206.519562 313.669983,209.918732 
	C308.919647,201.513123 304.423798,193.352722 299.927948,185.192307 
z"/>
<path fill="#8CD3D9" opacity="1.000000" stroke="none" 
	d="
M313.924408,210.163956 
	C317.039337,206.519562 320.005676,202.734695 323.295166,199.255325 
	C336.971771,184.789200 350.730133,170.400192 364.494171,156.017029 
	C368.358154,151.979248 372.343903,148.058014 376.612976,144.045135 
	C379.687866,152.980469 382.423523,161.953964 385.192596,171.330444 
	C384.148682,172.990860 383.127930,174.302414 381.985474,175.497574 
	C366.955383,191.220718 351.932770,206.951202 336.850494,222.624237 
	C332.171783,227.486237 327.319519,232.181229 321.974976,236.687744 
	C318.910278,227.669861 316.417358,218.916916 313.924408,210.163956 
z"/>
<path fill="#EEF0F2" opacity="1.000000" stroke="none" 
	d="
M172.542603,257.935852 
	C166.320328,256.299683 160.547165,254.640396 154.386780,252.963333 
	C150.279999,251.102386 146.560425,249.259201 142.559875,247.268250 
	C127.944130,212.520920 127.683838,177.969299 142.838409,143.164062 
	C177.705917,128.146347 212.357910,127.899124 247.439194,143.347229 
	C256.530853,163.986740 259.964172,185.067734 258.223206,207.401642 
	C256.818451,221.732971 252.980820,234.988495 247.722565,247.875626 
	C247.370071,248.159195 247.017578,248.442749 246.101791,248.878098 
	C231.525620,254.552200 217.040695,258.045959 202.002228,259.161041 
	C192.332062,258.744934 182.661880,258.328827 172.542603,257.935852 
z"/>
<path fill="#414BA0" opacity="1.000000" stroke="none" 
	d="
M258.336243,206.986023 
	C259.964172,185.067734 256.530853,163.986740 247.785217,143.402924 
	C252.239044,145.293365 256.785950,147.550049 261.654236,149.945435 
	C268.450562,154.961929 274.925446,159.839737 281.695312,164.876831 
	C287.774933,171.633850 293.559631,178.231552 299.636139,185.010773 
	C304.423798,193.352722 308.919647,201.513123 313.669983,209.918732 
	C316.417358,218.916916 318.910278,227.669861 321.620941,236.726837 
	C321.941284,238.729523 322.043915,240.428207 321.746307,242.553101 
	C319.505890,242.286819 317.508667,241.855942 315.850433,240.860397 
	C302.676300,232.951157 289.612122,224.858307 276.416412,216.985718 
	C270.505096,213.459015 264.369873,210.307693 258.336243,206.986023 
z"/>
<path fill="#474FA1" opacity="1.000000" stroke="none" 
	d="
M258.223206,207.401642 
	C264.369873,210.307693 270.505096,213.459015 276.416412,216.985718 
	C289.612122,224.858307 302.676300,232.951157 315.850433,240.860397 
	C317.508667,241.855942 319.505890,242.286819 321.731812,242.978638 
	C325.054047,258.554047 323.661346,273.936493 319.938721,289.606079 
	C313.771332,286.702728 307.603943,283.599854 301.678772,280.088287 
	C283.868378,269.532776 266.152405,258.817932 248.061066,248.020432 
	C252.980820,234.988495 256.818451,221.732971 258.223206,207.401642 
z"/>
<path fill="#67C6CF" opacity="1.000000" stroke="none" 
	d="
M201.955124,259.491882 
	C217.040695,258.045959 231.525620,254.552200 245.948715,249.053314 
	C241.980026,256.812256 237.601105,264.547791 233.095337,272.593079 
	C228.020294,278.376770 223.072113,283.850677 217.939026,289.610809 
	C212.472748,293.991638 207.191376,298.086243 201.705841,302.458557 
	C195.870209,305.736816 190.238770,308.737427 184.307129,311.926208 
	C174.934418,315.076202 165.861877,318.037994 156.397156,321.065826 
	C148.314804,321.795288 140.624634,322.458740 132.467728,323.095581 
	C136.078201,318.863342 139.922150,314.396118 144.282532,310.508087 
	C152.668976,303.030151 161.357056,295.891022 169.902832,288.591217 
	C178.952271,280.861237 188.018799,273.150360 196.989243,265.329529 
	C198.830017,263.724670 200.278641,261.670013 201.955124,259.491882 
z"/>
</svg>